HIERARCHY
ROOT Hips
{
	OFFSET 0.000000 0.000000 0.000000
	CHANNELS 6 Xposition Yposition Zposition Xrotation Yrotation Zrotation
	JOINT LeftUpLeg_virtual
	{
		OFFSET 0.000000 0.000000 0.000000
		CHANNELS 3 Xrotation Yrotation Zrotation
		JOINT LeftUpLeg
		{
			OFFSET 15.427100 -6.655098 0.678600
			CHANNELS 3 Xrotation Yrotation Zrotation
			JOINT LeftLeg
			{
				OFFSET 4.081073 -39.591068 13.024000
				CHANNELS 3 Xrotation Yrotation Zrotation
				JOINT LeftFoot
				{
					OFFSET -4.081074 -37.707932 -15.979700
					CHANNELS 3 Xrotation Yrotation Zrotation
					JOINT LeftToeBase
					{
						OFFSET 5.346399 -15.068900 20.645000
						CHANNELS 3 Xrotation Yrotation Zrotation
						JOINT LeftToe_End
						{
							OFFSET 2.754700 0.931300 11.300900
							CHANNELS 3 Xrotation Yrotation Zrotation
							End Site
							{
								OFFSET 0 0 0
							}
						}
					}
				}
			}
		}
	}
	JOINT RightUpLeg_virtual
	{
		OFFSET 0.000000 0.000000 0.000000
		CHANNELS 3 Xrotation Yrotation Zrotation
		JOINT RightUpLeg
		{
			OFFSET -15.569500 -6.655098 0.678600
			CHANNELS 3 Xrotation Yrotation Zrotation
			JOINT RightLeg
			{
				OFFSET -4.081825 -39.591045 13.023800
				CHANNELS 3 Xrotation Yrotation Zrotation
				JOINT RightFoot
				{
					OFFSET 4.081824 -37.707954 -15.979600
					CHANNELS 3 Xrotation Yrotation Zrotation
					JOINT RightToeBase
					{
						OFFSET -5.346400 -15.068900 20.645000
						CHANNELS 3 Xrotation Yrotation Zrotation
						JOINT RightToe_End
						{
							OFFSET -2.754700 0.931300 11.300900
							CHANNELS 3 Xrotation Yrotation Zrotation
							End Site
							{
								OFFSET 0 0 0
							}
						}
					}
				}
			}
		}
	}
	JOINT Spine_virtual
	{
		OFFSET 0.000000 0.000000 0.000000
		CHANNELS 3 Xrotation Yrotation Zrotation
		JOINT Spine
		{
			OFFSET -0.279200 12.230698 -2.892100
			CHANNELS 3 Xrotation Yrotation Zrotation
			JOINT Spine1
			{
				OFFSET -0.232667 10.192268 -1.242267
				CHANNELS 3 Xrotation Yrotation Zrotation
				JOINT Spine1_split
				{
					OFFSET -0.232667 10.192268 -1.242267
					CHANNELS 3 Xrotation Yrotation Zrotation
					JOINT Spine2
					{
						OFFSET -0.232667 10.192268 -1.242267
						CHANNELS 3 Xrotation Yrotation Zrotation
						JOINT Neck_virtual
						{
							OFFSET 0.000000 0.000000 0.000000
							CHANNELS 3 Xrotation Yrotation Zrotation
							JOINT Neck
							{
								OFFSET -0.418800 17.814194 8.416900
								CHANNELS 3 Xrotation Yrotation Zrotation
								JOINT Head
								{
									OFFSET 0.000000 7.031097 3.806800
									CHANNELS 3 Xrotation Yrotation Zrotation
									JOINT HeadTop_End
									{
										OFFSET 0.000000 24.646606 12.978600
										CHANNELS 3 Xrotation Yrotation Zrotation
										End Site
										{
											OFFSET 0 0 0
										}
									}
								}
							}
						}
						JOINT LeftShoulder_virtual
						{
							OFFSET 0.000000 0.000000 0.000000
							CHANNELS 3 Xrotation Yrotation Zrotation
							JOINT LeftShoulder
							{
								OFFSET 8.476499 7.247704 -3.868750
								CHANNELS 3 Xrotation Yrotation Zrotation
								JOINT LeftShoulder_split
								{
									OFFSET 8.476499 7.247704 -3.868750
									CHANNELS 3 Xrotation Yrotation Zrotation
									JOINT LeftArm
									{
										OFFSET 9.308998 -2.777710 0.208600
										CHANNELS 3 Xrotation Yrotation Zrotation
										JOINT LeftForeArm
										{
											OFFSET 29.972298 0.000000 0.000000
											CHANNELS 3 Xrotation Yrotation Zrotation
											JOINT LeftHand
											{
												OFFSET 26.026505 0.000000 0.000000
												CHANNELS 3 Xrotation Yrotation Zrotation
												End Site
												{
													OFFSET 0 0 0
												}
											}
										}
									}
								}
							}
						}
						JOINT RightShoulder_virtual
						{
							OFFSET 0.000000 0.000000 0.000000
							CHANNELS 3 Xrotation Yrotation Zrotation
							JOINT RightShoulder
							{
								OFFSET -7.570500 7.247704 -3.868750
								CHANNELS 3 Xrotation Yrotation Zrotation
								JOINT RightShoulder_split
								{
									OFFSET -7.570500 7.247704 -3.868750
									CHANNELS 3 Xrotation Yrotation Zrotation
									JOINT RightArm
									{
										OFFSET -9.308998 -2.777710 0.208500
										CHANNELS 3 Xrotation Yrotation Zrotation
										JOINT RightForeArm
										{
											OFFSET -29.972300 0.000000 0.000000
											CHANNELS 3 Xrotation Yrotation Zrotation
											JOINT RightHand
											{
												OFFSET -26.026505 0.000000 0.000000
												CHANNELS 3 Xrotation Yrotation Zrotation
												End Site
												{
													OFFSET 0 0 0
												}
											}
										}
									}
								}
							}
						}
					}
				}
			}
		}
	}
}
MOTION
Frames: 6
Frame Time: 0.03333333
-0.050158 83.031654 -6.827797 0.000000 0.000000 0.000000 -3.461523 6.959607 7.192293 -60.846774 7.337004 6.269452 40.664501 10.373979 -0.271740 13.849158 -8.657722 -7.119971 4.748436 -0.239736 6.279082 0.000000 0.000000 0.000000 -3.769456 7.701993 7.410524 -11.034426 -9.851758 -4.456637 44.249333 10.482520 2.530503 -33.352828 -5.969308 -3.061167 7.163106 3.791140 -5.163216 0.000000 0.000000 0.000000 -5.323332 10.989530 6.498725 12.569587 -0.353913 -1.651892 3.738608 -1.609600 -1.076345 0.091735 -0.381376 0.066815 0.000000 0.000000 0.000000 4.259336 1.008578 -1.109403 9.637067 7.482885 2.395267 -5.584612 -7.932778 -1.511224 0.000000 0.000000 0.000000 2.533059 -0.625337 -2.036202 -0.134090 -0.075228 -7.885121 -1.934727 -2.737109 -1.286545 13.117154 -21.264923 -57.807572 3.837514 -26.903681 2.170316 0.000000 0.000000 0.000000 4.204600 -0.222497 -1.406006 -0.176325 3.238829 14.923379 3.627051 2.039445 1.138405 11.442864 11.247663 49.076456 2.124065 40.256845 0.639621 0.000000 0.000000 0.000000 
-0.223362 83.204575 -7.176548 0.000000 0.000000 0.000000 -3.189459 6.515843 7.597477 -60.723285 8.422124 5.685890 34.631614 9.136393 1.250268 15.729738 -10.809288 -6.597541 5.242562 -0.350061 8.556176 0.000000 0.000000 0.000000 -3.469009 7.636855 7.715889 -11.537411 -9.632771 -4.573029 45.029818 9.886858 2.683526 -32.939882 -5.856930 -4.641879 6.636719 4.203038 -5.302479 0.000000 0.000000 0.000000 -5.192744 11.235506 7.107557 13.015036 -0.394893 -1.575503 3.831593 -1.702502 -1.102623 0.099591 -0.367556 0.096876 0.000000 0.000000 0.000000 4.280855 0.891185 -1.132233 10.048763 7.660498 1.791698 -5.937022 -7.904716 -1.732922 0.000000 0.000000 0.000000 2.545252 -0.702673 -2.140433 -0.090316 0.241973 -8.380020 -2.272134 -2.694462 -1.035291 14.049703 -22.267112 -58.055768 3.083424 -26.350368 1.879258 0.000000 0.000000 0.000000 4.107359 -0.355692 -1.480542 -0.025220 4.218105 15.258486 4.401196 2.194557 1.142612 10.627966 11.242531 48.224677 2.237645 41.449447 0.505380 0.000000 0.000000 0.000000 
-0.542263 83.176102 -7.897346 0.000000 0.000000 0.000000 -3.204313 6.352836 7.888391 -60.450043 9.770452 5.145522 31.813273 8.666797 2.162939 16.784768 -11.631988 -5.348549 6.768144 -0.132817 8.284275 0.000000 0.000000 0.000000 -3.101895 8.043441 7.923814 -12.719977 -9.300213 -5.051154 46.126173 9.646654 2.777860 -31.865701 -5.424193 -5.015939 5.045314 4.608480 -5.665157 0.000000 0.000000 0.000000 -4.847515 11.685591 7.443637 13.496840 -0.532256 -1.524365 3.938587 -1.811938 -1.032568 0.117889 -0.373782 0.082319 0.000000 0.000000 0.000000 4.241293 0.779297 -1.127928 10.314339 7.783687 1.413956 -6.705974 -7.853461 -2.025575 0.000000 0.000000 0.000000 2.506891 -0.770330 -2.157824 -0.058649 0.335636 -8.759195 -2.681894 -2.540003 -0.950695 14.616475 -23.058973 -58.077495 2.225299 -25.821184 1.489345 0.000000 0.000000 0.000000 3.978946 -0.472837 -1.489337 0.105700 4.967976 15.629889 5.183104 2.322399 0.916961 9.764817 11.606015 47.545411 2.534782 42.276224 0.182405 0.000000 0.000000 0.000000 
-0.907625 83.259552 -8.806732 0.000000 0.000000 0.000000 -3.049015 6.783587 8.060180 -59.911448 10.728801 4.189754 32.046035 8.533071 2.597963 16.857901 -11.291985 -4.096575 9.181866 0.208273 6.004270 0.000000 0.000000 0.000000 -2.593313 8.883339 8.055595 -14.196071 -8.815720 -5.492004 46.278958 9.601427 2.745637 -30.531239 -4.615728 -4.656961 3.678120 4.886085 -6.173638 0.000000 0.000000 0.000000 -3.965823 12.417357 7.534489 13.865807 -0.808087 -1.466101 4.026060 -1.947415 -0.920595 0.092066 -0.404986 0.054351 0.000000 0.000000 0.000000 4.177309 0.674261 -1.093250 10.420441 7.920816 1.179955 -8.043990 -7.630232 -2.465347 0.000000 0.000000 0.000000 2.434946 -0.856453 -2.106455 -0.054152 0.101419 -8.939002 -2.986661 -2.319228 -0.972569 14.977889 -23.771995 -57.840576 1.441526 -25.510470 1.106687 0.000000 0.000000 0.000000 3.862140 -0.574439 -1.435410 0.211742 5.430800 15.970203 5.676790 2.327078 0.543478 9.037769 11.947221 47.157463 2.959416 42.736473 -0.291815 0.000000 0.000000 0.000000 
-1.155306 83.563019 -9.717655 0.000000 0.000000 0.000000 -2.471897 8.001125 8.035892 -58.323955 11.073705 2.561904 33.456152 8.709196 2.544254 14.560418 -10.056638 -1.733062 9.418339 0.237984 4.023571 0.000000 0.000000 0.000000 -1.807099 9.644692 8.103800 -15.655798 -8.450072 -5.651753 45.017241 9.314833 2.661440 -29.179876 -3.671378 -4.579278 3.767340 5.008070 -6.814764 0.000000 0.000000 0.000000 -2.669322 13.271986 7.362711 14.002432 -1.204554 -1.362463 4.031422 -2.127405 -0.811279 0.043314 -0.491842 -0.000555 0.000000 0.000000 0.000000 4.157873 0.556474 -1.023098 10.427872 8.079487 0.987782 -10.159709 -7.116287 -3.194434 0.000000 0.000000 0.000000 2.359545 -0.972725 -2.006655 -0.067372 -0.439911 -8.941181 -2.978039 -2.211421 -1.027447 15.376311 -24.482571 -57.404393 0.917323 -25.746582 0.887241 0.000000 0.000000 0.000000 3.800901 -0.695109 -1.323040 0.307240 5.592809 16.189589 5.788451 2.301405 0.125184 8.622923 11.780740 47.184125 3.450519 43.036192 -0.836840 0.000000 0.000000 0.000000 
-1.264062 84.099060 -10.525860 0.000000 0.000000 0.000000 -1.333893 9.428555 7.774581 -55.431346 10.937918 1.069995 34.620818 8.974249 2.075646 10.677198 -8.604447 1.759112 7.521943 0.013537 3.177045 0.000000 0.000000 0.000000 -0.767209 10.219666 8.001684 -16.962000 -8.397765 -5.441399 42.579348 8.645071 2.747614 -27.795617 -2.854062 -5.118597 5.226159 4.989565 -7.626500 0.000000 0.000000 0.000000 -0.958460 14.128239 6.938800 13.864879 -1.655528 -1.142042 3.953013 -2.368628 -0.727076 0.051573 -0.524111 -0.045914 0.000000 0.000000 0.000000 4.222678 0.399940 -0.916167 10.414952 8.271787 0.816579 -13.059031 -6.300675 -4.244839 0.000000 0.000000 0.000000 2.314595 -1.146659 -1.871950 -0.071450 -1.149266 -8.792750 -2.797838 -2.285139 -1.208926 15.968682 -25.211471 -56.874159 0.859333 -26.676786 0.974756 0.000000 0.000000 0.000000 3.843178 -0.860873 -1.170445 0.396984 5.440192 16.211883 5.378376 2.488162 -0.200305 8.751565 10.816584 47.657744 3.961780 43.640787 -1.391210 0.000000 0.000000 0.000000 
